<svg id="visual" viewBox="0 0 1728 100" preserveAspectRatio="none" xmlns="http://www.w3.org/2000/svg" xmlns:xlink="http://www.w3.org/1999/xlink" version="1.1">

  <path d="M0 60L28.8 61.7C57.7 63.3 115.3 66.7 173 60C230.7 53.3 288.3 36.7 345.8 28.8C403.3 21 460.7 22 518.2 32.8C575.7 43.7 633.3 64.3 691 75C748.7 85.7 806.3 86.3 864 80.2C921.7 74 979.3 61 1037 52C1094.7 43 1152.3 38 1209.8 40.2C1267.3 42.3 1324.7 51.7 1382.2 51C1439.7 50.3 1497.3 39.7 1555 36.7C1612.7 33.7 1670.3 38.3 1699.2 40.7L1728 43L1728 101L1699.2 101C1670.3 101 1612.7 101 1555 101C1497.3 101 1439.7 101 1382.2 101C1324.7 101 1267.3 101 1209.8 101C1152.3 101 1094.7 101 1037 101C979.3 101 921.7 101 864 101C806.3 101 748.7 101 691 101C633.3 101 575.7 101 518.2 101C460.7 101 403.3 101 345.8 101C288.3 101 230.7 101 173 101C115.3 101 57.7 101 28.8 101L0 101Z" fill="currentColor" stroke-linecap="round" stroke-linejoin="miter"></path>
</svg>