<svg id="visual" viewBox="0 0 1728 100" preserveAspectRatio="none" xmlns="http://www.w3.org/2000/svg" xmlns:xlink="http://www.w3.org/1999/xlink" version="1.1">

  <path d="M0 42L28.8 40.5C57.7 39 115.3 36 173 40.2C230.7 44.3 288.3 55.7 345.8 62.8C403.3 70 460.7 73 518.2 69.2C575.7 65.3 633.3 54.7 691 51.3C748.7 48 806.3 52 864 50.8C921.7 49.7 979.3 43.3 1037 41.8C1094.7 40.3 1152.3 43.7 1209.8 52.3C1267.3 61 1324.7 75 1382.2 79.8C1439.7 84.7 1497.3 80.3 1555 70C1612.7 59.7 1670.3 43.3 1699.2 35.2L1728 27L1728 101L1699.2 101C1670.3 101 1612.7 101 1555 101C1497.3 101 1439.7 101 1382.2 101C1324.7 101 1267.3 101 1209.8 101C1152.3 101 1094.7 101 1037 101C979.3 101 921.7 101 864 101C806.3 101 748.7 101 691 101C633.3 101 575.7 101 518.2 101C460.7 101 403.3 101 345.8 101C288.3 101 230.7 101 173 101C115.3 101 57.7 101 28.8 101L0 101Z" fill="currentColor" stroke-linecap="round" stroke-linejoin="miter"></path>
</svg>