<svg id="visual" viewBox="0 0 1728 100" preserveAspectRatio="none" xmlns="http://www.w3.org/2000/svg" xmlns:xlink="http://www.w3.org/1999/xlink" version="1.1">

  <path d="M0 43L28.8 45.7C57.7 48.3 115.3 53.7 173 54.7C230.7 55.7 288.3 52.3 345.8 47.3C403.3 42.3 460.7 35.7 518.2 31.3C575.7 27 633.3 25 691 31.8C748.7 38.7 806.3 54.3 864 60.2C921.7 66 979.3 62 1037 57.7C1094.7 53.3 1152.3 48.7 1209.8 53C1267.3 57.3 1324.7 70.7 1382.2 67.8C1439.7 65 1497.3 46 1555 40.5C1612.7 35 1670.3 43 1699.2 47L1728 51L1728 101L1699.2 101C1670.3 101 1612.7 101 1555 101C1497.3 101 1439.7 101 1382.2 101C1324.7 101 1267.3 101 1209.8 101C1152.3 101 1094.7 101 1037 101C979.3 101 921.7 101 864 101C806.3 101 748.7 101 691 101C633.3 101 575.7 101 518.2 101C460.7 101 403.3 101 345.8 101C288.3 101 230.7 101 173 101C115.3 101 57.7 101 28.8 101L0 101Z" fill="currentColor" stroke-linecap="round" stroke-linejoin="miter"></path>
</svg>