<svg id="visual" viewBox="0 0 1728 100" preserveAspectRatio="none" xmlns="http://www.w3.org/2000/svg" xmlns:xlink="http://www.w3.org/1999/xlink" version="1.1">

  <path d="M0 84L28.8 80.2C57.7 76.3 115.3 68.7 173 63.7C230.7 58.7 288.3 56.3 345.8 50C403.3 43.7 460.7 33.3 518.2 38C575.7 42.7 633.3 62.3 691 70.5C748.7 78.7 806.3 75.3 864 70.3C921.7 65.3 979.3 58.7 1037 49.8C1094.7 41 1152.3 30 1209.8 35.8C1267.3 41.7 1324.7 64.3 1382.2 64.8C1439.7 65.3 1497.3 43.7 1555 37.8C1612.7 32 1670.3 42 1699.2 47L1728 52L1728 101L1699.2 101C1670.3 101 1612.7 101 1555 101C1497.3 101 1439.7 101 1382.2 101C1324.7 101 1267.3 101 1209.8 101C1152.3 101 1094.7 101 1037 101C979.3 101 921.7 101 864 101C806.3 101 748.7 101 691 101C633.3 101 575.7 101 518.2 101C460.7 101 403.3 101 345.8 101C288.3 101 230.7 101 173 101C115.3 101 57.7 101 28.8 101L0 101Z" fill="currentColor" stroke-linecap="round" stroke-linejoin="miter"></path>
</svg>