<svg id="visual" viewBox="0 0 1728 100" preserveAspectRatio="none" xmlns="http://www.w3.org/2000/svg" xmlns:xlink="http://www.w3.org/1999/xlink" version="1.1">

  <path d="M0 68L28.8 70.5C57.7 73 115.3 78 173 79.5C230.7 81 288.3 79 345.8 69C403.3 59 460.7 41 518.2 39.2C575.7 37.3 633.3 51.7 691 56C748.7 60.3 806.3 54.7 864 48C921.7 41.3 979.3 33.7 1037 29.5C1094.7 25.3 1152.3 24.7 1209.8 31C1267.3 37.3 1324.7 50.7 1382.2 57.7C1439.7 64.7 1497.3 65.3 1555 67.3C1612.7 69.3 1670.3 72.7 1699.2 74.3L1728 76L1728 101L1699.2 101C1670.3 101 1612.7 101 1555 101C1497.3 101 1439.7 101 1382.2 101C1324.7 101 1267.3 101 1209.8 101C1152.3 101 1094.7 101 1037 101C979.3 101 921.7 101 864 101C806.3 101 748.7 101 691 101C633.3 101 575.7 101 518.2 101C460.7 101 403.3 101 345.8 101C288.3 101 230.7 101 173 101C115.3 101 57.7 101 28.8 101L0 101Z" fill="currentColor" stroke-linecap="round" stroke-linejoin="miter"></path>
</svg>