<svg id="visual" viewBox="0 0 900 900" width="900" height="900" xmlns="http://www.w3.org/2000/svg" xmlns:xlink="http://www.w3.org/1999/xlink" version="1.1"><rect x="0" y="0" width="900" height="900" fill="#000000"></rect><g transform="translate(478.1220378521689 421.5096731445745)"><path d="M165.7 -225.4C201.7 -201.9 208.8 -136 213.4 -79.3C218.1 -22.7 220.3 24.8 209 70.5C197.7 116.2 172.9 160 135.8 204.2C98.7 248.4 49.4 293 -0.3 293.4C-50 293.8 -99.9 250 -147 209.1C-194.1 168.1 -238.3 130 -259.3 80.6C-280.2 31.3 -278 -29.2 -252.6 -74.2C-227.2 -119.3 -178.5 -149.1 -132.6 -169.3C-86.6 -189.5 -43.3 -200.2 10.8 -215.1C64.9 -229.9 129.7 -248.8 165.7 -225.4" fill="#ffffff"></path></g></svg>