<svg id="visual" viewBox="0 0 900 900" width="900" height="900" xmlns="http://www.w3.org/2000/svg" xmlns:xlink="http://www.w3.org/1999/xlink" version="1.1"><rect x="0" y="0" width="900" height="900" fill="#000000"></rect><g transform="translate(467.9650191725516 423.29948476028983)"><path d="M168 -224.9C207.5 -202.6 222.1 -139.7 230.1 -82.5C238.1 -25.2 239.3 26.5 223.9 72.3C208.4 118.2 176.2 158.2 136.1 201.4C96 244.6 48 291.1 1.3 289.3C-45.5 287.6 -90.9 237.6 -135.9 196C-180.9 154.4 -225.5 121.1 -249.7 74.5C-273.9 28 -277.7 -31.7 -263.7 -89.1C-249.8 -146.5 -218.1 -201.5 -171.1 -221.4C-124.2 -241.3 -62.1 -226.1 1.1 -227.6C64.3 -229.1 128.5 -247.2 168 -224.9" fill="#ffffff"></path></g></svg>