<svg id="visual" viewBox="0 0 900 900" width="900" height="900" xmlns="http://www.w3.org/2000/svg" xmlns:xlink="http://www.w3.org/1999/xlink" version="1.1"><rect x="0" y="0" width="900" height="900" fill="#000000"></rect><g transform="translate(469.0066127703912 466.0217710443234)"><path d="M150 -201.2C195.9 -173.2 235.4 -131.3 249.2 -82.4C263.1 -33.6 251.4 22.1 229.3 69.7C207.2 117.2 174.7 156.5 134.8 181.3C94.8 206.2 47.4 216.6 3 212.4C-41.3 208.2 -82.7 189.4 -127.5 166.2C-172.4 142.9 -220.8 115.2 -253.6 69.4C-286.4 23.5 -303.7 -40.4 -286.4 -92.8C-269 -145.3 -217.1 -186.3 -163.6 -211.8C-110.1 -237.2 -55.1 -247.1 -1.5 -245.1C52.1 -243.1 104.2 -229.1 150 -201.2" fill="#ffffff"></path></g></svg>