<svg id="visual" viewBox="0 0 900 900" width="900" height="900" xmlns="http://www.w3.org/2000/svg" xmlns:xlink="http://www.w3.org/1999/xlink" version="1.1"><rect x="0" y="0" width="900" height="900" fill="#000000"></rect><g transform="translate(428.94780177687016 479.16041477911136)"><path d="M166.6 -242.2C201 -204.4 203.7 -135.7 217.7 -74.9C231.7 -14.1 257.1 38.8 243.7 78.9C230.2 118.9 178 146 130.9 167.9C83.9 189.8 41.9 206.4 -7.2 216.2C-56.2 226.1 -112.5 229.1 -147.8 203.4C-183.2 177.8 -197.6 123.3 -202.9 73.8C-208.3 24.2 -204.4 -20.5 -195.9 -68.9C-187.4 -117.3 -174.2 -169.5 -140.8 -207.6C-107.4 -245.8 -53.7 -269.9 6.2 -278.5C66.1 -287 132.3 -280 166.6 -242.2" fill="#ffffff"></path></g></svg>