<svg id="visual" viewBox="0 0 900 900" width="900" height="900" xmlns="http://www.w3.org/2000/svg" xmlns:xlink="http://www.w3.org/1999/xlink" version="1.1">
  <g transform="translate(437.4528834543115 468.43328831588775)">
    <path d="M152.8 -213.4C203.4 -173.6 253.4 -136.1 269 -87.5C284.7 -38.9 266 20.7 247.3 81C228.5 141.2 209.8 202.1 168.6 233.3C127.4 264.6 63.7 266.3 3.4 261.6C-56.8 256.9 -113.6 245.7 -140.4 209.8C-167.1 173.8 -163.8 113 -183.9 58.1C-204 3.2 -247.5 -45.7 -249.7 -94.1C-251.8 -142.6 -212.6 -190.6 -164.1 -231.1C-115.6 -271.6 -57.8 -304.6 -3.3 -300C51.1 -295.4 102.3 -253.3 152.8 -213.4" fill="currentColor"></path>
  </g>
</svg>