<svg id="visual" viewBox="0 0 900 900" width="900" height="900" xmlns="http://www.w3.org/2000/svg" xmlns:xlink="http://www.w3.org/1999/xlink" version="1.1"><rect x="0" y="0" width="900" height="900" fill="#000000"></rect><g transform="translate(436.2044119459147 455.6436351094743)"><path d="M141.1 -196.8C183.4 -163.4 218.7 -123 229.6 -77.4C240.6 -31.8 227.3 18.9 203.8 58.5C180.3 98.1 146.6 126.7 110.9 150.6C75.2 174.6 37.6 193.8 -14.3 213.4C-66.1 233 -132.3 253 -159 226.2C-185.8 199.4 -173.1 125.8 -179.7 67.4C-186.3 9 -212 -34.1 -204.6 -69.4C-197.1 -104.6 -156.5 -132 -116.8 -166.3C-77.2 -200.6 -38.6 -241.8 5.4 -249.2C49.4 -256.6 98.7 -230.2 141.1 -196.8" fill="#ffffff"></path></g></svg>