<svg id="visual" viewBox="0 0 900 900" width="900" height="900" xmlns="http://www.w3.org/2000/svg" xmlns:xlink="http://www.w3.org/1999/xlink" version="1.1"><rect x="0" y="0" width="900" height="900" fill="#000000"></rect><g transform="translate(455.91328922646437 420.6114502841001)"><path d="M146.5 -198.1C183.3 -174.9 202 -123.3 214.9 -72.4C227.9 -21.5 235.2 28.6 227.2 80.1C219.1 131.5 195.7 184.3 155.2 217.7C114.8 251 57.4 265 -4.4 271C-66.1 277 -132.3 275 -174.7 242.3C-217.2 209.6 -236 146.2 -241 88.4C-246 30.5 -237.1 -21.8 -216.3 -65.4C-195.5 -109 -162.7 -143.9 -124.6 -166.7C-86.6 -189.5 -43.3 -200.2 5.8 -208.2C54.9 -216.1 109.7 -221.3 146.5 -198.1" fill="#ffffff"></path></g></svg>