<svg id="visual" viewBox="0 0 900 900" width="900" height="900" xmlns="http://www.w3.org/2000/svg" xmlns:xlink="http://www.w3.org/1999/xlink" version="1.1"><rect x="0" y="0" width="900" height="900" fill="#000000"></rect><g transform="translate(453.6059248775767 434.83290817843385)"><path d="M158.8 -230.7C188.3 -197.1 182.6 -127.3 201.9 -66C221.3 -4.7 265.7 48 269.2 103.1C272.8 158.2 235.6 215.6 183.9 251.3C132.3 287 66.1 301 16.5 278.3C-33.1 255.5 -66.1 196 -115.9 159.7C-165.7 123.4 -232.2 110.2 -260 73C-287.9 35.8 -277.1 -25.3 -254.3 -78.7C-231.6 -132.1 -196.9 -177.7 -152.5 -206.4C-108.2 -235.2 -54.1 -247.1 5.3 -254.4C64.7 -261.7 129.3 -264.3 158.8 -230.7" fill="#ffffff"></path></g></svg>