<svg id="visual" viewBox="0 0 900 900" width="900" height="900" xmlns="http://www.w3.org/2000/svg" xmlns:xlink="http://www.w3.org/1999/xlink" version="1.1"><rect x="0" y="0" width="900" height="900" fill="#000000"></rect><g transform="translate(469.15714299843137 449.58469033695474)"><path d="M159 -240.2C185.8 -199.4 173.1 -125.8 180.8 -67C188.5 -8.3 216.4 35.6 217.9 83.1C219.4 130.6 194.3 181.8 153.6 223.4C112.9 265 56.4 297 7.5 286.6C-41.3 276.2 -82.7 223.5 -112.8 178.4C-142.9 133.4 -161.8 96 -189.6 51.8C-217.5 7.6 -254.2 -43.5 -256.2 -97.3C-258.1 -151.2 -225.1 -207.9 -176.6 -241.6C-128.1 -275.4 -64.1 -286.2 1 -287.6C66.1 -289 132.3 -281 159 -240.2" fill="#ffffff"></path></g></svg>