<svg id="visual" viewBox="0 0 900 900" width="900" height="900" xmlns="http://www.w3.org/2000/svg" xmlns:xlink="http://www.w3.org/1999/xlink" version="1.1"><rect x="0" y="0" width="900" height="900" fill="#000000"></rect><g transform="translate(452.6225197746648 482.7248076669486)"><path d="M123.1 -181.9C149.9 -150.1 155.2 -101.1 184.6 -50.6C214 0 267.5 52.1 259.2 86.2C250.8 120.2 180.7 136.2 127.2 149.4C73.7 162.7 36.8 173.4 1.6 171.2C-33.7 169.1 -67.4 154.1 -99.3 133.8C-131.1 113.5 -161.1 87.8 -195.5 48C-229.8 8.1 -268.5 -45.8 -265.1 -95.3C-261.6 -144.7 -216 -189.7 -164.8 -213.5C-113.6 -237.4 -56.8 -240.2 -4.3 -234.3C48.2 -228.3 96.4 -213.7 123.1 -181.9" fill="#ffffff"></path></g></svg>