<svg id="visual" viewBox="0 0 900 900" width="900" height="900" xmlns="http://www.w3.org/2000/svg" xmlns:xlink="http://www.w3.org/1999/xlink" version="1.1"><rect x="0" y="0" width="900" height="900" fill="#000000"></rect><g transform="translate(433.34217850022753 464.6413837423516)"><path d="M140.8 -208.5C174.2 -169.5 187.4 -117.3 209.9 -64.4C232.3 -11.4 264.1 42.3 263.7 98.7C263.3 155.1 230.8 214.1 181.5 238.4C132.3 262.7 66.1 252.3 9.1 239.9C-48 227.4 -96 212.8 -129.5 183.3C-162.9 153.9 -181.8 109.5 -199 63.1C-216.2 16.7 -231.7 -31.8 -230.3 -86.8C-228.9 -141.7 -210.6 -203.1 -169.3 -239.6C-128.1 -276 -64.1 -287.5 -5.2 -280.4C53.7 -273.2 107.4 -247.4 140.8 -208.5" fill="#ffffff"></path></g></svg>