<svg id="visual" viewBox="0 0 900 900" width="900" height="900" xmlns="http://www.w3.org/2000/svg" xmlns:xlink="http://www.w3.org/1999/xlink" version="1.1"><rect x="0" y="0" width="900" height="900" fill="#000000"></rect><g transform="translate(427.4266812300359 420.8665813310583)"><path d="M150.9 -185.2C200.6 -171.5 249.6 -134.3 277.9 -82.1C306.1 -29.9 313.5 37.2 280.3 76.1C247.1 115 173.1 125.8 119.6 150.6C66.1 175.4 33.1 214.2 -15 234.8C-63.1 255.5 -126.2 258 -154.4 225C-182.6 192 -175.9 123.5 -196.7 63.1C-217.5 2.7 -265.7 -49.6 -255.8 -84C-245.9 -118.4 -177.9 -134.8 -125.6 -147.7C-73.3 -160.5 -36.6 -169.8 7 -179.3C50.5 -188.9 101.1 -198.8 150.9 -185.2" fill="#ffffff"></path></g></svg>