<svg id="visual" viewBox="0 0 900 900" width="900" height="900" xmlns="http://www.w3.org/2000/svg" xmlns:xlink="http://www.w3.org/1999/xlink" version="1.1"><rect x="0" y="0" width="900" height="900" fill="#000000"></rect><g transform="translate(426.8342092801722 453.2298182014701)"><path d="M161.9 -229.8C191.5 -201.3 184.7 -129.5 203.6 -67.1C222.5 -4.7 267.2 48.3 255.4 82.5C243.6 116.7 175.3 131.9 123.3 151.7C71.3 171.5 35.7 195.7 -14.7 216C-65 236.2 -130.1 252.4 -167.7 227.9C-205.2 203.5 -215.3 138.4 -209.5 84.9C-203.8 31.4 -182.1 -10.4 -172.2 -60.6C-162.3 -110.8 -164 -169.5 -137.3 -199C-110.5 -228.4 -55.3 -228.7 5.4 -236.2C66.1 -243.7 132.3 -258.4 161.9 -229.8" fill="#ffffff"></path></g></svg>