<svg id="visual" viewBox="0 0 900 900" width="900" height="900" xmlns="http://www.w3.org/2000/svg" xmlns:xlink="http://www.w3.org/1999/xlink" version="1.1"><rect x="0" y="0" width="900" height="900" fill="#000000"></rect><g transform="translate(456.6223695430305 470.8761241665682)"><path d="M172.5 -243.6C212.8 -208.2 227.2 -143.3 238.3 -83.5C249.5 -23.6 257.4 31.3 244.1 81.5C230.8 131.6 196.2 177.1 152 204.5C107.8 232 53.9 241.5 1.4 239.6C-51.1 237.7 -102.3 224.4 -153.3 199.2C-204.4 173.9 -255.3 136.7 -263.2 90.7C-271 44.6 -235.8 -10.3 -214.3 -67.5C-192.7 -124.6 -184.8 -184.1 -151.4 -221.7C-117.9 -259.3 -59 -275.2 3.6 -280.1C66.1 -285 132.3 -279 172.5 -243.6" fill="#ffffff"></path></g></svg>