<svg id="visual" viewBox="0 0 1728 100" width="1728" height="100" xmlns="http://www.w3.org/2000/svg" xmlns:xlink="http://www.w3.org/1999/xlink" version="1.1"><rect x="0" y="0" width="1728" height="100" fill="#000000"></rect><path d="M0 30L28.8 40C57.7 50 115.3 70 173 74.5C230.7 79 288.3 68 345.8 61.8C403.3 55.7 460.7 54.3 518.2 58.5C575.7 62.7 633.3 72.3 691 75.5C748.7 78.7 806.3 75.3 864 75C921.7 74.7 979.3 77.3 1037 77C1094.7 76.7 1152.3 73.3 1209.8 71.5C1267.3 69.7 1324.7 69.3 1382.2 72C1439.7 74.7 1497.3 80.3 1555 73.2C1612.7 66 1670.3 46 1699.2 36L1728 26L1728 101L1699.2 101C1670.3 101 1612.7 101 1555 101C1497.3 101 1439.7 101 1382.2 101C1324.7 101 1267.3 101 1209.8 101C1152.3 101 1094.7 101 1037 101C979.3 101 921.7 101 864 101C806.3 101 748.7 101 691 101C633.3 101 575.7 101 518.2 101C460.7 101 403.3 101 345.8 101C288.3 101 230.7 101 173 101C115.3 101 57.7 101 28.8 101L0 101Z" fill="#ffffff" stroke-linecap="round" stroke-linejoin="miter"></path></svg>