<svg id="visual" viewBox="0 0 1728 100" width="1728" height="100" xmlns="http://www.w3.org/2000/svg" xmlns:xlink="http://www.w3.org/1999/xlink" version="1.1"><rect x="0" y="0" width="1728" height="100" fill="#000000"></rect><path d="M0 61L28.8 61C57.7 61 115.3 61 173 63.3C230.7 65.7 288.3 70.3 345.8 72.2C403.3 74 460.7 73 518.2 65.2C575.7 57.3 633.3 42.7 691 36.7C748.7 30.7 806.3 33.3 864 41.2C921.7 49 979.3 62 1037 66C1094.7 70 1152.3 65 1209.8 57.2C1267.3 49.3 1324.7 38.7 1382.2 43.3C1439.7 48 1497.3 68 1555 69.2C1612.7 70.3 1670.3 52.7 1699.2 43.8L1728 35L1728 101L1699.2 101C1670.3 101 1612.7 101 1555 101C1497.3 101 1439.7 101 1382.2 101C1324.7 101 1267.3 101 1209.8 101C1152.3 101 1094.7 101 1037 101C979.3 101 921.7 101 864 101C806.3 101 748.7 101 691 101C633.3 101 575.7 101 518.2 101C460.7 101 403.3 101 345.8 101C288.3 101 230.7 101 173 101C115.3 101 57.7 101 28.8 101L0 101Z" fill="#ffffff" stroke-linecap="round" stroke-linejoin="miter"></path></svg>