<svg id="visual" viewBox="0 0 1728 100" width="1728" height="100" xmlns="http://www.w3.org/2000/svg" xmlns:xlink="http://www.w3.org/1999/xlink" version="1.1"><rect x="0" y="0" width="1728" height="100" fill="#000000"></rect><path d="M0 80L28.8 80.8C57.7 81.7 115.3 83.3 173 77.3C230.7 71.3 288.3 57.7 345.8 58C403.3 58.3 460.7 72.7 518.2 68.8C575.7 65 633.3 43 691 39C748.7 35 806.3 49 864 53C921.7 57 979.3 51 1037 51.8C1094.7 52.7 1152.3 60.3 1209.8 65.7C1267.3 71 1324.7 74 1382.2 70.5C1439.7 67 1497.3 57 1555 58.2C1612.7 59.3 1670.3 71.7 1699.2 77.8L1728 84L1728 101L1699.2 101C1670.3 101 1612.7 101 1555 101C1497.3 101 1439.7 101 1382.2 101C1324.7 101 1267.3 101 1209.8 101C1152.3 101 1094.7 101 1037 101C979.3 101 921.7 101 864 101C806.3 101 748.7 101 691 101C633.3 101 575.7 101 518.2 101C460.7 101 403.3 101 345.8 101C288.3 101 230.7 101 173 101C115.3 101 57.7 101 28.8 101L0 101Z" fill="#ffffff" stroke-linecap="round" stroke-linejoin="miter"></path></svg>