<svg id="visual" viewBox="0 0 1728 100" width="1728" height="100" xmlns="http://www.w3.org/2000/svg" xmlns:xlink="http://www.w3.org/1999/xlink" version="1.1"><rect x="0" y="0" width="1728" height="100" fill="#000000"></rect><path d="M0 32L28.8 37.7C57.7 43.3 115.3 54.7 173 60.2C230.7 65.7 288.3 65.3 345.8 65.8C403.3 66.3 460.7 67.7 518.2 65.3C575.7 63 633.3 57 691 48.8C748.7 40.7 806.3 30.3 864 32.8C921.7 35.3 979.3 50.7 1037 53.2C1094.7 55.7 1152.3 45.3 1209.8 41.2C1267.3 37 1324.7 39 1382.2 46.3C1439.7 53.7 1497.3 66.3 1555 68.5C1612.7 70.7 1670.3 62.3 1699.2 58.2L1728 54L1728 101L1699.2 101C1670.3 101 1612.7 101 1555 101C1497.3 101 1439.7 101 1382.2 101C1324.7 101 1267.3 101 1209.8 101C1152.3 101 1094.7 101 1037 101C979.3 101 921.7 101 864 101C806.3 101 748.7 101 691 101C633.3 101 575.7 101 518.2 101C460.7 101 403.3 101 345.8 101C288.3 101 230.7 101 173 101C115.3 101 57.7 101 28.8 101L0 101Z" fill="#ffffff" stroke-linecap="round" stroke-linejoin="miter"></path></svg>